<?xml version="1.0" encoding="utf-8"?>
<!-- Generator: Adobe Illustrator 16.0.0, SVG Export Plug-In . SVG Version: 6.00 Build 0)  -->
<!DOCTYPE svg PUBLIC "-//W3C//DTD SVG 1.1//EN" "http://www.w3.org/Graphics/SVG/1.1/DTD/svg11.dtd">
<svg version="1.1" id="Layer_1" xmlns="http://www.w3.org/2000/svg" xmlns:xlink="http://www.w3.org/1999/xlink" x="0px" y="0px"
	 width="595.281px" height="841.89px" viewBox="0 0 595.281 841.89" enable-background="new 0 0 595.281 841.89"
	 xml:space="preserve">
<rect x="47.653" y="153.445" fill="#FFFFFF" width="501" height="536"/>
<g>
	<path d="M542.168,331.072c0-113.476-74.41-146.728-74.41-146.728c-73.014-33.484-266.829-33.136-339.146,0
		c0,0-74.41,33.252-74.41,146.728c0,135.102-7.674,302.871,123.357,337.52c47.32,12.439,87.897,15.23,120.684,13.254
		c59.296-3.256,92.663-21.16,92.663-21.16l-1.977-43.135c0,0-42.436,13.254-90.105,11.742
		c-47.203-1.627-96.965-5.115-104.639-63.016c-0.697-5.348-1.046-10.813-1.046-16.277c99.988,24.416,185.21,10.58,208.696,7.791
		c65.574-7.791,122.66-48.252,129.869-85.107C543.1,414.899,542.168,331.072,542.168,331.072L542.168,331.072z M454.389,477.333
		h-54.412V343.977c0-58.017-74.76-60.226-74.76,8.022v73.016h-54.063V352c0-68.364-74.759-66.039-74.759-8.022v133.356h-54.528
		c0-142.542-6.046-172.654,21.509-204.395c30.229-33.717,93.245-35.926,121.266,7.092l13.486,22.788l13.486-22.788
		c28.137-43.367,91.27-40.577,121.266-7.092C460.667,304.796,454.389,334.792,454.389,477.333L454.389,477.333z"/>
</g>
</svg>
